<svg xmlns="http://www.w3.org/2000/svg" viewBox="0 0 256 256" focusable="false" color="var(--token-818a283b-450e-452c-a8af-6b81d42f4181, rgb(33, 33, 35)) /* {&quot;name&quot;:&quot;Black&quot;} */" style="user-select: none; width: 100%; height: 100%; display: inline-block; fill: var(--token-818a283b-450e-452c-a8af-6b81d42f4181, rgb(33, 33, 35)); color: var(--token-818a283b-450e-452c-a8af-6b81d42f4181, rgb(33, 33, 35)); flex-shrink: 0;"><g color="var(--token-818a283b-450e-452c-a8af-6b81d42f4181, rgb(33, 33, 35)) /* {&quot;name&quot;:&quot;Black&quot;} */" weight="regular"><path d="M243.28,68.24l-24-23.56a16,16,0,0,0-22.58,0L104,136h0l-.11-.11L67.25,100.62a16,16,0,0,0-22.57.06l-24,24a16,16,0,0,0,0,22.61l71.62,72a16,16,0,0,0,22.63,0L243.33,90.91A16,16,0,0,0,243.28,68.24ZM103.62,208,32,136l24-24,.11.11,36.64,35.27a16,16,0,0,0,22.52,0L208.06,56,232,79.6Z"></path></g></svg>